<svg width="24" height="24" viewBox="0 0 24 24" fill="none" xmlns="http://www.w3.org/2000/svg">
<rect x="2" y="2" width="20" height="20" rx="5" stroke="#353535" stroke-width="1.5"/>
<path d="M9 11.25C8.58579 11.25 8.25 11.5858 8.25 12C8.25 12.4142 8.58579 12.75 9 12.75V11.25ZM15 12.75C15.4142 12.75 15.75 12.4142 15.75 12C15.75 11.5858 15.4142 11.25 15 11.25V12.75ZM15 11.25H9V12.75H15V11.25Z" fill="#353535"/>
<path d="M12.75 8.99988C12.75 8.58566 12.4142 8.24988 12 8.24988C11.5858 8.24988 11.25 8.58566 11.25 8.99988L12.75 8.99988ZM11.25 14.9999C11.25 15.4141 11.5858 15.7499 12 15.7499C12.4142 15.7499 12.75 15.4141 12.75 14.9999L11.25 14.9999ZM12.75 14.9999L12.75 8.99988L11.25 8.99988L11.25 14.9999L12.75 14.9999Z" fill="#353535"/>
</svg>
