<svg width="24" height="24" viewBox="0 0 24 24" fill="none" xmlns="http://www.w3.org/2000/svg">
<path d="M3.66275 13.2136L4.20681 12.6973L3.66275 13.2136ZM20.3372 13.2136L20.8813 13.7298L20.3372 13.2136ZM19.7932 5.26871C21.7356 7.3158 21.7356 10.6503 19.7932 12.6973L20.8813 13.7298C23.3729 11.104 23.3729 6.8621 20.8813 4.23624L19.7932 5.26871ZM12.8528 5.26871C14.7741 3.24393 17.8719 3.24392 19.7932 5.26871L20.8813 4.23624C18.3686 1.58808 14.2775 1.58808 11.7647 4.23624L12.8528 5.26871ZM4.20681 5.26871C6.12806 3.24393 9.2259 3.24393 11.1472 5.26871L12.2353 4.23624C9.72253 1.58808 5.63144 1.58808 3.11869 4.23624L4.20681 5.26871ZM4.20681 12.6973C2.2644 10.6503 2.2644 7.3158 4.20681 5.26871L3.11869 4.23624C0.627102 6.8621 0.627104 11.104 3.11869 13.7298L4.20681 12.6973ZM10.3678 19.1904L4.20681 12.6973L3.11869 13.7298L9.27971 20.2229L10.3678 19.1904ZM19.7932 12.6973L13.6322 19.1904L14.7203 20.2229L20.8813 13.7298L19.7932 12.6973ZM11.7647 4.23624C11.8926 4.10146 12.1074 4.10146 12.2353 4.23624L11.1472 5.26871C11.6108 5.7573 12.3892 5.7573 12.8528 5.26871L11.7647 4.23624ZM9.27971 20.2229C10.7584 21.7813 13.2416 21.7813 14.7203 20.2229L13.6322 19.1904C12.7449 20.1254 11.2551 20.1254 10.3678 19.1904L9.27971 20.2229Z" fill="#353535"/>
</svg>
