<svg width="269" height="102" viewBox="0 0 269 102" fill="none" xmlns="http://www.w3.org/2000/svg">
<circle cx="47" cy="47" r="47" fill="#353535"/>
<circle cx="47.0002" cy="46.9997" r="32.1579" fill="#F6F6F6"/>
<rect x="50.7104" width="16.0789" height="94" fill="#F6F6F6"/>
<rect x="50.7598" y="94" width="45.12" height="43.24" transform="rotate(-90 50.7598 94)" fill="#F6F6F6"/>
<path d="M77.7331 94.352C74.7251 94.352 72.3998 93.4027 70.7571 91.504C69.1358 89.584 68.3251 86.96 68.3251 83.632C68.3251 80.304 69.1358 77.68 70.7571 75.76C72.3998 73.84 74.7251 72.88 77.7331 72.88C80.7625 72.88 83.0985 73.8507 84.7411 75.792C86.4051 77.712 87.2371 80.3253 87.2371 83.632C87.2371 86.9387 86.4051 89.552 84.7411 91.472C83.0985 93.392 80.7625 94.352 77.7331 94.352ZM77.7331 92.08C79.3758 92.08 80.5491 91.4187 81.2531 90.096C81.9785 88.752 82.3411 86.5973 82.3411 83.632C82.3411 80.688 81.9785 78.544 81.2531 77.2C80.5278 75.856 79.3545 75.184 77.7331 75.184C76.1331 75.184 74.9705 75.856 74.2451 77.2C73.5411 78.544 73.1891 80.688 73.1891 83.632C73.1891 86.5973 73.5411 88.752 74.2451 90.096C74.9491 91.4187 76.1118 92.08 77.7331 92.08ZM91.8159 94V73.2H96.2319V91.696H104.296V94H91.8159ZM108.088 73.2H115.16C118.382 73.2 120.856 74.096 122.584 75.888C124.334 77.6587 125.208 80.2507 125.208 83.664C125.208 87.0347 124.355 89.6053 122.648 91.376C120.942 93.1253 118.456 94 115.192 94H108.088V73.2ZM115.224 91.728C116.462 91.728 117.443 91.472 118.168 90.96C118.915 90.4267 119.459 89.584 119.8 88.432C120.142 87.2587 120.312 85.6693 120.312 83.664C120.312 81.6587 120.131 80.0587 119.768 78.864C119.427 77.6693 118.883 76.8053 118.136 76.272C117.39 75.7387 116.398 75.472 115.16 75.472H112.504V91.728H115.224ZM129.767 94V73.2H134.183V94H129.767ZM149.218 73.2H155.586C157.954 73.2 159.789 73.7973 161.09 74.992C162.413 76.1653 163.074 77.9147 163.074 80.24C163.074 81.904 162.712 83.28 161.986 84.368C161.261 85.456 160.333 86.256 159.202 86.768C158.072 87.2587 156.898 87.504 155.682 87.504H153.634V94H149.218V73.2ZM155.17 85.456C156.237 85.456 157.026 85.0933 157.538 84.368C158.05 83.6213 158.306 82.3093 158.306 80.432C158.306 78.5333 158.05 77.2 157.538 76.432C157.026 75.664 156.237 75.28 155.17 75.28H153.634V85.456H155.17ZM167.241 94V73.2H171.657V94H167.241ZM185.896 94.352C182.76 94.352 180.371 93.4133 178.728 91.536C177.085 89.6373 176.264 87.0453 176.264 83.76C176.264 81.584 176.637 79.6747 177.384 78.032C178.131 76.3893 179.219 75.12 180.648 74.224C182.077 73.328 183.773 72.88 185.736 72.88C186.717 72.88 187.677 73.008 188.616 73.264C189.576 73.4987 190.397 73.7653 191.08 74.064C191.784 74.3413 192.136 74.4907 192.136 74.512L191.688 76.848C191.539 76.7627 191.176 76.6027 190.6 76.368C190.024 76.112 189.331 75.8667 188.52 75.632C187.731 75.3973 186.984 75.28 186.28 75.28C185.085 75.28 184.115 75.5467 183.368 76.08C182.621 76.6133 182.056 77.488 181.672 78.704C181.309 79.92 181.128 81.552 181.128 83.6C181.128 86.608 181.565 88.752 182.44 90.032C183.315 91.312 184.669 91.952 186.504 91.952C187.528 91.952 188.424 91.7387 189.192 91.312C189.981 90.864 190.611 90.384 191.08 89.872C191.571 89.3387 191.816 89.04 191.816 88.976L193.224 90.512C193.224 90.6187 192.936 91.0027 192.36 91.664C191.805 92.3253 190.984 92.944 189.896 93.52C188.808 94.0747 187.475 94.352 185.896 94.352ZM200.557 94V75.504H194.957V73.2H210.573V75.504H205.005V94H200.557ZM221.793 94.352C219.276 94.352 217.367 93.6587 216.065 92.272C214.785 90.8853 214.145 88.944 214.145 86.448V73.2H218.593V85.456C218.593 87.76 218.903 89.4133 219.521 90.416C220.161 91.4187 221.153 91.92 222.497 91.92C223.927 91.92 224.983 91.3973 225.665 90.352C226.348 89.3067 226.689 87.6747 226.689 85.456V73.2H229.409V86.448C229.409 88.9653 228.812 90.9173 227.617 92.304C226.423 93.6693 224.481 94.352 221.793 94.352ZM235.05 73.2H241.45C243.796 73.2 245.631 73.776 246.954 74.928C248.276 76.0587 248.938 77.6587 248.938 79.728C248.938 81.072 248.607 82.2453 247.946 83.248C247.284 84.2293 246.42 84.9973 245.354 85.552L250.154 94H245.066L241.162 86.448H239.466V94H235.05V73.2ZM241.098 84.336C241.887 84.336 242.495 84.208 242.922 83.952C243.37 83.6747 243.69 83.216 243.882 82.576C244.074 81.936 244.17 81.0507 244.17 79.92C244.17 78.256 243.924 77.072 243.434 76.368C242.964 75.6427 242.154 75.28 241.002 75.28H239.466V84.336H241.098ZM254.51 94V73.2H266.99V75.504H258.926V82.352H266.03V84.592H258.926V91.696H267.438V94H254.51Z" fill="#353535"/>
</svg>
