<svg width="60" height="60" viewBox="0 0 60 60" fill="none" xmlns="http://www.w3.org/2000/svg">
<rect width="60" height="60" fill="white"/>
<rect x="11" y="11" width="38" height="38" stroke="#353535" stroke-width="6"/>
<rect x="8" y="8" width="6" height="22" fill="white" fill-opacity="0.9"/>
<rect x="14" y="14" width="6" height="38" transform="rotate(-90 14 14)" fill="white" fill-opacity="0.9"/>
<path d="M22.276 35.132C21.404 35.132 20.728 34.864 20.248 34.328C19.768 33.784 19.528 32.944 19.528 31.808C19.528 31.608 19.532 31.404 19.54 31.196C19.556 30.98 19.572 30.804 19.588 30.668C19.74 29.42 20.056 28.512 20.536 27.944C21.024 27.368 21.64 27.08 22.384 27.08C22.64 27.08 22.896 27.116 23.152 27.188C23.408 27.252 23.62 27.324 23.788 27.404C23.964 27.476 24.076 27.524 24.124 27.548L23.92 28.352C23.88 28.328 23.788 28.284 23.644 28.22C23.5 28.148 23.324 28.08 23.116 28.016C22.916 27.952 22.724 27.92 22.54 27.92C22.076 27.92 21.728 28.104 21.496 28.472C21.272 28.84 21.144 29.496 21.112 30.44C21.528 30.112 21.972 29.948 22.444 29.948C23.188 29.948 23.788 30.164 24.244 30.596C24.7 31.028 24.928 31.664 24.928 32.504C24.928 33.328 24.692 33.972 24.22 34.436C23.756 34.9 23.108 35.132 22.276 35.132ZM22.276 34.34C22.62 34.34 22.86 34.2 22.996 33.92C23.14 33.632 23.212 33.152 23.212 32.48C23.212 31.848 23.136 31.396 22.984 31.124C22.84 30.844 22.596 30.704 22.252 30.704C21.876 30.704 21.552 30.892 21.28 31.268C21.256 31.484 21.244 31.84 21.244 32.336C21.244 32.848 21.276 33.248 21.34 33.536C21.412 33.824 21.52 34.032 21.664 34.16C21.816 34.28 22.02 34.34 22.276 34.34ZM28.0993 35.132C27.6673 35.132 27.2953 35.068 26.9833 34.94C26.6713 34.812 26.4273 34.676 26.2513 34.532C26.0753 34.38 25.9873 34.292 25.9873 34.268L26.4673 33.596C26.4673 33.612 26.5353 33.68 26.6713 33.8C26.8153 33.92 26.9953 34.032 27.2113 34.136C27.4353 34.232 27.6873 34.28 27.9673 34.28C28.4313 34.28 28.7873 34.144 29.0353 33.872C29.2913 33.6 29.4193 33.144 29.4193 32.504C29.4193 31.912 29.3113 31.488 29.0953 31.232C28.8873 30.976 28.5873 30.848 28.1953 30.848C27.9953 30.848 27.8153 30.884 27.6553 30.956C27.4953 31.028 27.3793 31.116 27.3073 31.22L27.2473 31.34L26.6833 31.256L27.1393 27.2H30.7153L30.6313 28.76H27.7873L27.6433 30.188C27.8753 30.116 28.1073 30.08 28.3393 30.08C29.1873 30.08 29.8633 30.284 30.3673 30.692C30.8713 31.1 31.1233 31.692 31.1233 32.468C31.1233 33.06 30.9753 33.556 30.6793 33.956C30.3913 34.356 30.0153 34.652 29.5513 34.844C29.0953 35.036 28.6113 35.132 28.0993 35.132ZM34.4744 31.856C33.7944 31.856 33.2744 31.636 32.9144 31.196C32.5624 30.748 32.3864 30.152 32.3864 29.408C32.3864 28.68 32.5704 28.096 32.9384 27.656C33.3144 27.216 33.8264 26.996 34.4744 26.996C35.1144 26.996 35.6224 27.22 35.9984 27.668C36.3824 28.108 36.5744 28.688 36.5744 29.408C36.5744 30.144 36.3904 30.736 36.0224 31.184C35.6544 31.632 35.1384 31.856 34.4744 31.856ZM35.8424 35.144L35.0504 34.904L38.2904 27.38L39.0944 27.62L35.8424 35.144ZM34.4624 31.1C34.7344 31.1 34.9344 30.964 35.0624 30.692C35.1984 30.412 35.2664 29.976 35.2664 29.384C35.2664 28.792 35.2024 28.372 35.0744 28.124C34.9464 27.868 34.7464 27.74 34.4744 27.74C34.2024 27.74 34.0064 27.868 33.8864 28.124C33.7664 28.372 33.7064 28.792 33.7064 29.384C33.7064 29.984 33.7664 30.42 33.8864 30.692C34.0064 30.964 34.1984 31.1 34.4624 31.1ZM39.8264 35.228C39.1464 35.228 38.6264 35.008 38.2664 34.568C37.9144 34.12 37.7384 33.524 37.7384 32.78C37.7384 32.052 37.9224 31.468 38.2904 31.028C38.6664 30.588 39.1784 30.368 39.8264 30.368C40.4664 30.368 40.9744 30.592 41.3504 31.04C41.7344 31.48 41.9264 32.06 41.9264 32.78C41.9264 33.516 41.7424 34.108 41.3744 34.556C41.0064 35.004 40.4904 35.228 39.8264 35.228ZM39.8144 34.472C40.0864 34.472 40.2864 34.336 40.4144 34.064C40.5504 33.784 40.6184 33.348 40.6184 32.756C40.6184 32.164 40.5544 31.744 40.4264 31.496C40.2984 31.24 40.0984 31.112 39.8264 31.112C39.5544 31.112 39.3584 31.24 39.2384 31.496C39.1184 31.744 39.0584 32.164 39.0584 32.756C39.0584 33.356 39.1184 33.792 39.2384 34.064C39.3584 34.336 39.5504 34.472 39.8144 34.472Z" fill="#353535"/>
</svg>
