<svg width="24" height="24" viewBox="0 0 24 24" fill="none" xmlns="http://www.w3.org/2000/svg">
<path d="M4.51191 9.56944C4.19741 9.29988 4.16099 8.8264 4.43056 8.51191C4.70012 8.19741 5.1736 8.16099 5.48809 8.43056L4.51191 9.56944ZM18.5119 8.43056C18.8264 8.16099 19.2999 8.19741 19.5694 8.51191C19.839 8.8264 19.8026 9.29988 19.4881 9.56944L18.5119 8.43056ZM5.48809 8.43056L11.7071 13.7612L10.731 14.9001L4.51191 9.56944L5.48809 8.43056ZM12.2929 13.7612L18.5119 8.43056L19.4881 9.56944L13.269 14.9001L12.2929 13.7612ZM11.7071 13.7612C11.8757 13.9056 12.1243 13.9056 12.2929 13.7612L13.269 14.9001C12.5388 15.526 11.4612 15.526 10.731 14.9001L11.7071 13.7612Z" fill="#F7F7F7"/>
</svg>
