<svg width="522" height="101" viewBox="0 0 522 101" fill="none" xmlns="http://www.w3.org/2000/svg">
<path d="M0.48 83.18C0.48 92.56 6.78 100.12 15.32 100.12C24 100.12 30.16 92.56 30.16 83.18V17.24C30.16 7.72 23.86 0.0199976 15.32 0.0199976C6.78 0.0199976 0.48 7.72 0.48 17.24V83.18ZM8.32 13.18C8.32 6.46 10.56 2.39999 15.32 2.39999C20.08 2.39999 22.32 6.46 22.32 13.18V87.8C22.32 93.96 20.08 97.74 15.32 97.74C10.56 97.74 8.32 93.96 8.32 87.8V13.18ZM46.3311 0.999993V99H54.1711V52.66H59.3511C68.7311 52.66 74.7511 46.08 74.7511 34.74V19.2C74.7511 7.99999 68.7311 0.999993 59.3511 0.999993H46.3311ZM66.9111 35.86C66.9111 46.5 65.3711 50.28 59.2111 50.28H54.1711V3.38H59.2111C65.3711 3.38 66.9111 7.43999 66.9111 18.22V35.86ZM107.498 1.13999L92.098 68.06L90.978 73.66H89.998L90.418 68.06V1.13999H87.898V99H92.098L112.398 14.3L113.378 8.69999H114.358L114.078 14.3V99H116.598V1.13999H107.498ZM133.339 99H141.179V3.51999H153.359V1.13999H133.339V99ZM184.662 1.13999L169.262 68.06L168.142 73.66H167.162L167.582 68.06V1.13999H165.062V99H169.262L189.562 14.3L190.542 8.69999H191.522L191.242 14.3V99H193.762V1.13999H184.662ZM210.503 0.999993V99H218.343V51.26H231.503V99H239.343V0.999993H231.503V48.88H218.343V0.999993H210.503ZM253.062 99H255.862L259.222 69.18H270.562L274.902 99H282.882L268.462 1.13999H264.262L253.062 99ZM263.562 25.08H264.542L265.102 30.68L270.142 66.8H259.502L263.282 30.68L263.562 25.08ZM290.28 97.74C292.38 99.28 294.76 100.12 297.14 100.12C303.3 100.12 308.06 94.1 308.34 80.94L310.44 3.51999H324.02V99H331.86V1.13999H302.6L300.5 85.56C300.36 92.7 298.96 97.32 295.74 97.32C294.62 97.32 293.08 96.76 291.4 95.64L290.28 97.74ZM356.921 43.98V1.13999H349.081V99H362.801C372.041 99 378.341 90.6 378.341 77.16V65.96C378.341 52.38 373.861 43.98 363.641 43.98H356.921ZM370.501 77.86C370.501 91.58 367.281 96.62 362.241 96.62H356.921V46.36H362.521C368.121 46.36 370.501 51.4 370.501 65.26V77.86ZM393.542 0.999993V99H401.382V51.26H414.542V99H422.382V0.999993H414.542V48.88H401.382V0.999993H393.542ZM447.347 43.98V1.13999H439.507V99H453.227C462.467 99 468.767 90.6 468.767 77.16V65.96C468.767 52.38 464.287 43.98 454.067 43.98H447.347ZM475.347 1.13999V99H483.187V1.13999H475.347ZM460.927 77.86C460.927 91.58 457.707 96.62 452.667 96.62H447.347V46.36H452.947C458.547 46.36 460.927 51.4 460.927 65.26V77.86ZM500.237 1.13999V99H521.797V96.62H508.217V50.14H518.997V47.9H508.217V3.51999H521.797V1.13999H500.237Z" fill="white"/>
</svg>
