<svg width="367" height="42" viewBox="0 0 367 42" fill="none" xmlns="http://www.w3.org/2000/svg">
<path d="M0.16 1.3V31H3.34V2.26H7.9V31H11.02V1.3H0.16ZM21.287 2.98V1.3H18.107V41.08H21.287V29.56L20.987 27.82L21.407 27.7C22.127 30.34 23.147 31.42 24.767 31.42C27.347 31.42 29.567 28.72 29.567 25.6V6.58C29.567 3.58 27.287 0.879998 24.707 0.879998C23.087 0.879998 22.067 2.02 21.407 4.78L20.987 4.66L21.287 2.98ZM21.287 24.16V8.56C21.287 4.9 22.547 2.2 24.227 2.2C25.547 2.2 26.327 3.7 26.327 6.28V26.5C26.327 28.9 25.607 30.22 24.347 30.22C22.547 30.22 21.287 27.64 21.287 24.16ZM41.7972 0.819999C38.6172 0.819999 35.9772 3.7 35.9772 7.18V25.24C35.9772 28.66 38.6172 31.48 41.7972 31.48C44.9772 31.48 47.5572 28.66 47.5572 25.24V7.18C47.5572 3.7 44.9772 0.819999 41.7972 0.819999ZM41.7972 1.78C43.4772 1.78 44.3172 3.1 44.3172 5.56V26.8C44.3172 29.26 43.4772 30.46 41.7972 30.46C40.1172 30.46 39.2172 29.2 39.2172 26.8V5.56C39.2172 3.1 40.1172 1.78 41.7972 1.78ZM61.48 1.3L55.78 21.04L55.42 22.78H55.06L55.18 20.98V1.3H54.16V31H55.84L63.4 5.74L63.7 4L64.12 4.06L64 5.8V31H65.02V1.3H61.48ZM74.68 31.48C78.34 31.48 81.22 28.84 81.22 25.18V21.28C81.22 18.22 79.36 16.24 76.96 16L76.3 15.94V15.46L76.96 15.4C79.24 15.1 80.92 13.24 80.92 10.36V6.88C80.92 3.28 78.34 0.819999 75.04 0.819999C73.18 0.819999 71.5 1.6 70.54 2.92L71.32 3.46C72.28 2.32 73.3 1.9 74.38 1.9C76.3 1.9 77.68 3.4 77.68 6.7V10.36C77.68 13.66 76.78 15.22 74.74 15.22H73.9V16.18H74.74C76.96 16.18 77.98 17.86 77.98 21.28V25.48C77.98 28.78 76.12 30.4 73.96 30.4C72.88 30.4 71.8 29.98 70.54 29.14L70 29.92C71.5 30.94 73.12 31.48 74.68 31.48ZM98.6763 7C98.6763 3.34 96.3963 1.3 93.5163 1.3H87.8163V31H93.6963C96.7563 31 99.1563 28.6 99.1563 24.46V22.48C99.1563 18.28 97.1163 16.3 95.2563 15.94L94.7763 15.88L94.7163 15.52L95.2563 15.46C96.8163 15.22 98.6763 13.54 98.6763 9.94V7ZM90.9363 15.22V2.26H93.2763C95.1963 2.26 95.5563 3.4 95.5563 6.82V10.6C95.5563 13.96 95.1963 15.22 93.3963 15.22H90.9363ZM96.0363 24.64C96.0363 28.72 95.5563 29.98 93.4563 29.98H90.9363V16.18H93.3963C95.1963 16.18 96.0363 17.8 96.0363 21.88V24.64ZM105.399 7.3V25C105.399 28.78 107.859 31.48 111.279 31.48C113.919 31.48 116.139 29.8 117.279 26.92L116.439 26.5C115.539 28.9 113.739 30.4 111.759 30.4C109.779 30.4 108.639 28.9 108.639 26.2V16.36H116.979V7.24C116.979 3.7 114.399 0.819999 111.219 0.819999C107.979 0.819999 105.399 3.76 105.399 7.3ZM108.639 15.4V5.5C108.639 3.1 109.539 1.78 111.219 1.78C112.839 1.78 113.739 3.1 113.739 5.5V15.4H108.639ZM121.682 38.86V31.48H135.182V38.86H138.302V30.52H135.542V1.3H125.762V7.96C125.762 20.68 124.682 27.22 122.282 30.52H120.662V38.86H121.682ZM123.302 30.52C126.002 27.1 126.782 18.34 126.782 8.62V2.26H132.362V30.52H123.302ZM142.805 7.3V25C142.805 28.78 145.265 31.48 148.685 31.48C151.325 31.48 153.545 29.8 154.685 26.92L153.845 26.5C152.945 28.9 151.145 30.4 149.165 30.4C147.185 30.4 146.045 28.9 146.045 26.2V16.36H154.385V7.24C154.385 3.7 151.805 0.819999 148.625 0.819999C145.385 0.819999 142.805 3.76 142.805 7.3ZM146.045 15.4V5.5C146.045 3.1 146.945 1.78 148.625 1.78C150.245 1.78 151.145 3.1 151.145 5.5V15.4H146.045ZM160.988 1.3V31H164.108V16.66H168.728V31H171.848V1.3H168.728V15.7H164.108V1.3H160.988ZM186.015 1.3L180.315 21.04L179.955 22.78H179.595L179.715 20.98V1.3H178.695V31H180.375L187.935 5.74L188.235 4L188.655 4.06L188.535 5.8V31H189.555V1.3H186.015ZM206.435 1.3H200.735C197.855 1.3 196.055 3.46 196.055 6.82V10.84C196.055 13.78 197.435 15.7 200.075 16.12V16.54C198.395 16.6 197.375 17.8 197.135 19.78L195.575 31H198.695L200.315 19.18C200.615 17.32 201.035 16.66 202.055 16.66H203.255V31H206.435V1.3ZM199.175 11.32V6.82C199.175 3.46 199.595 2.26 201.515 2.26H203.255V15.7H201.515C199.595 15.7 199.175 14.62 199.175 11.32ZM230.757 1.3L225.057 21.04L224.697 22.78H224.337L224.457 20.98V1.3H223.437V31H225.117L232.677 5.74L232.977 4L233.397 4.06L233.277 5.8V31H234.297V1.3H230.757ZM241.137 7.42V25.18C241.137 28.72 243.717 31.48 247.017 31.48C249.657 31.48 251.877 29.74 253.017 26.92L252.117 26.56C251.277 28.84 249.417 30.4 247.557 30.4C245.637 30.4 244.377 28.78 244.377 26.26V5.62C244.377 3.4 245.577 1.9 247.437 1.9C248.817 1.9 250.257 2.8 251.217 4.24L252.057 3.7C250.797 1.9 249.057 0.879998 247.017 0.879998C243.597 0.879998 241.137 3.64 241.137 7.42ZM257.321 7.42V25.18C257.321 28.72 259.901 31.48 263.201 31.48C265.841 31.48 268.061 29.74 269.201 26.92L268.301 26.56C267.461 28.84 265.601 30.4 263.741 30.4C261.821 30.4 260.561 28.78 260.561 26.26V5.62C260.561 3.4 261.761 1.9 263.621 1.9C265.001 1.9 266.441 2.8 267.401 4.24L268.241 3.7C266.981 1.9 265.241 0.879998 263.201 0.879998C259.781 0.879998 257.321 3.64 257.321 7.42ZM282.813 31H286.053L281.253 17.74C280.713 16.06 279.753 15.28 278.613 15.04L284.133 1.3H282.993L277.473 14.92H276.573V1.3H273.453V31H276.573V15.88H276.633C277.173 15.88 277.533 16.06 277.953 17.26L282.813 31ZM288.9 1.3L293.94 32.08L292.98 38.26C292.74 39.88 291.9 40.84 289.92 40.36L289.68 41.32C292.02 41.98 293.64 40.78 294.06 38.44L299.82 1.3H298.74L295.8 20.68L295.68 22.42H295.26L295.14 20.68L292.14 1.3H288.9ZM305.169 7.42V25.18C305.169 28.72 307.749 31.48 311.049 31.48C313.689 31.48 315.909 29.74 317.049 26.92L316.149 26.56C315.309 28.84 313.449 30.4 311.589 30.4C309.669 30.4 308.409 28.78 308.409 26.26V5.62C308.409 3.4 309.609 1.9 311.469 1.9C312.849 1.9 314.289 2.8 315.249 4.24L316.089 3.7C314.829 1.9 313.089 0.879998 311.049 0.879998C307.629 0.879998 305.169 3.64 305.169 7.42ZM331.552 1.3H320.212V2.26H324.352V31H327.472V2.26H331.552V1.3ZM348.168 7C348.168 3.34 345.888 1.3 343.008 1.3H337.308V31H343.188C346.248 31 348.648 28.6 348.648 24.46V22.48C348.648 18.28 346.608 16.3 344.748 15.94L344.268 15.88L344.208 15.52L344.748 15.46C346.308 15.22 348.168 13.54 348.168 9.94V7ZM340.428 15.22V2.26H342.768C344.688 2.26 345.048 3.4 345.048 6.82V10.6C345.048 13.96 344.688 15.22 342.888 15.22H340.428ZM345.528 24.64C345.528 28.72 345.048 29.98 342.948 29.98H340.428V16.18H342.888C344.688 16.18 345.528 17.8 345.528 21.88V24.64ZM354.283 25.06C354.283 28.9 355.843 31.48 358.303 31.48C359.983 31.48 361.603 30.22 362.683 27.94L363.043 28.06L362.803 29.56V31H366.043V7.42C366.043 3.46 363.823 0.939997 360.283 0.939997C357.643 0.939997 356.083 2.5 355.123 3.76L355.903 4.36C356.923 2.92 358.423 1.96 359.863 1.96C361.603 1.96 362.803 3.34 362.803 5.38V13.84C356.563 16 354.283 18.34 354.283 22.72V25.06ZM359.503 29.86C358.243 29.86 357.523 28.36 357.523 25.72V21.7C357.523 18.4 358.963 16.24 362.803 14.68V26.92C361.903 28.72 360.583 29.86 359.503 29.86Z" fill="white"/>
</svg>
